<?xml version="1.0" encoding="utf-8"?>
<!-- Generator: Adobe Illustrator 16.0.0, SVG Export Plug-In . SVG Version: 6.00 Build 0)  -->
<!DOCTYPE svg PUBLIC "-//W3C//DTD SVG 1.1//EN" "http://www.w3.org/Graphics/SVG/1.1/DTD/svg11.dtd">
<svg version="1.1" id="Layer_8" xmlns="http://www.w3.org/2000/svg" xmlns:xlink="http://www.w3.org/1999/xlink" x="0px" y="0px"
	 width="950.386px" height="226.431px" viewBox="0 0 950.386 226.431" enable-background="new 0 0 950.386 226.431"
	 xml:space="preserve">
<g>
	<path fill="#CCF3BA" d="M838.573,104.674c-2.066,2.522-13.555,19.428-15.177,21.879c-1.623,2.451-9.414,18.363-9.706,19.359
		c-0.516,1.759-1.298,4.052,3.803,3.654c5.103-0.398,17.023-7.798,20.146-9.218c3.123-1.421,16.303-7.945,16.962-10.701
		c0.661-2.755-1.62-8.386-3.93-11.903c-2.31-3.516-4.327-9.224-5.691-11.25C843.614,104.469,840.643,102.152,838.573,104.674z"/>
	<path fill="#CCF3BA" d="M857.139,145.06c0.225-2.046,2-6.991,0.115-9.069c-1.884-2.077-2.771-0.379-4.539,0.242
		c-1.768,0.622-25.54,13.08-27.617,14.346c-2.077,1.265-9.927,5.664-10.028,7.325c-0.101,1.625,7.06,2.446,9.613,2.407
		c2.555-0.04,22.044,0.937,24.146,0.648c2.103-0.288,9.668-2.448,10.281-4.054C859.723,155.3,856.916,147.106,857.139,145.06z"/>
	<path fill="#CCF3BA" d="M812.339,145.167c0.836-0.917,3.26-6.68,3.803-8.732c0.543-2.052,6.744-13.959,7.677-15.569
		c0.933-1.611,13.342-16.743,14.311-20.143c0.97-3.398-7.776-11.564-9.65-13.003c-1.873-1.44-10.032-8.784-12.204-8.942
		c-0.629-0.046-1.523,0.102-2.475,0.332c-0.624,5.672-1.574,14.288-2.642,23.961c0,0,0,0,0,0c0.687,2.942-0.76,17.044-1.029,20.241
		c-0.271,3.197-0.071,11.94-1.001,17.893S811.502,146.084,812.339,145.167z"/>
	<path fill="#CCF3BA" d="M809.878,222.856c-0.42-2.355-2.874-33.093-3.354-35.258c-0.479-2.163-1.33-15.877-2.378-17.585
		c-0.295-0.48-0.688-0.676-1.098-0.717c-4.298,17.168-14.267,41.708-20.878,57.134h27.242
		C809.919,224.944,810.016,223.631,809.878,222.856z"/>
	<path fill="#CCF3BA" d="M840.879,92.699c6.553,6.73,19.259,32.787,21.812,43.847c2.553,11.06,0.897,18.246,1.177,20.994
		c4.682-4.254,9.685-14.587,14.353-21.128c-1.016-4.235-3.385-11.428-5.051-15.926c-12.792-34.537-54.888-48.062-58.596-48.388
		c0,0-0.037,0.334-0.104,0.944C819.538,74.035,834.326,85.968,840.879,92.699z"/>
	<path fill="#CCF3BA" d="M866.254,201.937c4.24-6.967,7.896-14.694,10.346-23.24c-4.241,9.038-9.146,18.97-14.167,28.616
		C863.894,205.5,865.182,203.7,866.254,201.937z"/>
	<path fill="#CCF3BA" d="M836.349,163.259c-5.871,0.154-21.318,0.456-23.715,2.345c-1.369,1.079,5.163,7.773,7.049,9.852
		c1.883,2.079,13.783,13.43,15.886,14.43c1.16,0.552,3.229,1.514,5.116,2.046c0.176-0.741,0.312-1.562,0.369-2.51
		c0.272-4.58,6.075-8.178,11.008-11.458c0.874-3.48,2.996-10.173,1.382-12.146C851.68,163.661,842.221,163.105,836.349,163.259z"/>
	<path fill="#CCF3BA" d="M835.489,194.431c-1.422-1.191-10.919-8.323-12.483-10.406c-1.564-2.083-12.071-12.712-14.194-13.7
		c-2.123-0.989-1.718,0.41-1.553,1.654c0,0,0.597,6.725,1.289,10.227c0.692,3.501,2.664,15.347,3.042,19.171
		c0.379,3.825,1.229,17.54,3.436,19.932c1.886,2.043,10.868-3.707,15.142-6.608c2.65-5.076,6.188-12.129,8.438-16.642
		C837.516,196.436,836.169,195,835.489,194.431z"/>
</g>
<g>
	<path fill="#CDF4B3" d="M169.489,117.074c4.467-1.473,7.627-3.586,11.098,0.268c3.468,3.854,3.78,8.262,3.955,9.732
		c0.174,1.471,0.568,2.528,1.201,2.334c0.632-0.194,4.49,4.941,4.352,10.692c0,0,1.676,0.373,3.78,5.922
		c2.102,5.547,0.512,7.269,1.06,10.634c0,0,1.057-0.393,1.644,1.297c0.588,1.69,3.334,9.507,3.083,11.178l6.805,21.955
		c0,0,4.419,25.248,6.188,30.109c1.769,4.862-9.264-15.517-12.519-19.576c-3.253-4.06-13.438-24.838-15.829-29.925
		c-2.393-5.084-3.189-6.78-2.552-7.184c0.639-0.404-1.18-3.172-2.002-3.82c-0.822-0.649-6.851-11.27-4.886-14.573
		c0,0-3.883-4.075-4.002-7.85c-0.118-3.773-2.549-7.185-3.177-7.2c-0.629-0.014-4.707-4.723-4.217-7.645
		C163.959,120.503,165.02,118.549,169.489,117.074z"/>
	<path fill="#CDF4B3" d="M188.689,41.973c-0.419-0.01-4.655,1.844-5.924,2.372c-1.271,0.527-1.076,4.024-1.076,4.024
		c-1.682,0.239-2.033-2.562-2.033-2.562c-0.575,0.684-0.769,2.915-0.769,2.915c-0.377-1.687-0.321-4.06-0.321-4.06
		c-0.868,1.237-2.967,7.192-2.325,9.582c0.639,2.389-0.092,3.77-5.477,12.719c-5.383,8.95-3.934,24.208-4.064,23.787
		c-0.129-0.422-2.002-38.599-2.002-38.599c0.992-0.537,3.596,1.483,2.243-0.365c-1.352-1.849,0.596-1.522,2.318-2.039
		c1.721-0.518,0.848-1.796,0.053-2.234c-0.795-0.438-2.683-0.204-1.828-0.882c0.856-0.677,3.205,0.357,3.398-1.874
		c0.194-2.229,0.363-3.483-0.638-2.528c-1,0.953-3.541,2.008-3.503,0.473c0.038-1.535,2.039-3.442,2.237-5.812
		c0.196-2.371-1.035-3.517-1.035-3.517c-4.172,5.068-8.749,15.293-8.84,13.336c-0.094-1.957,1.873-2.469,2.047-3.861
		c0.174-1.394-0.586-4.624-0.586-4.624c-1.599,2.615-2.674,6.639-2.674,6.639c-0.521-1.549,1.295-7.371,1.104-11.006
		c-0.191-3.637-2.807-5.237-2.807-5.237c-3.302,3.692-3.413,8.299-2.872,9.01c0.377,0.493,2.332,4.911,3.191,6.829
		c-1.229-2.1-4.511-4.205-4.511-4.205c1.713,4.23,6.755,15.247,6.755,15.247c-3.979-8.756-12.085-8.533-8.766-7.196
		s3.383,4.551,7.957,23.377c4.574,18.828,8.831,45.049,8.831,45.049c1.553-0.66,4.678-2.82,4.678-2.82
		c-1.303-1.998-3.327-24.243-2.533-34.001c0.793-9.758,7.458-19.654,9.057-22.269c1.599-2.616,5.23-2.528,7.101-3.6
		c1.872-1.072,0.97-0.955-0.97-1.562c-1.94-0.604-4.371,1.711-2.539-0.062c1.832-1.771,5.202-0.292,5.352-0.708
		c0.148-0.416,2.447-3.013,1.605-2.895c-0.841,0.12-5.062,1.415-5.043,0.579c0.021-0.839,5.784-2.376,5.935-2.791
		C189.564,46.185,189.107,41.982,188.689,41.973z M158.416,63.591c-1.713-4.232-1.344-7.993-2.15-9.27l2.327,1.872
		c0,0,4.34,20.357,5.696,31.982C164.289,88.175,160.129,67.822,158.416,63.591z"/>
	<path fill="#CDF4B3" d="M115.971,66.58c0.343,0.277,6.071-1.391,6.521-0.685c0.45,0.707-3.833,1.782-4.615,2.116
		c-0.781,0.333,2.53,1.367,2.873,1.645c0.343,0.279,2.462-2.731,4.946-2.162c2.485,0.568-0.795-0.156-2.14,1.366
		c-1.349,1.523-2.181,1.888-0.023,1.837c2.156-0.05,5.217-2.005,7.939-0.594c2.721,1.41,13.545,6.429,19.276,14.368
		c5.729,7.938,15.509,28.021,15.429,30.404c0,0,3.792,0.23,5.462-0.008c0,0-9.93-24.64-15.759-43.116
		c-5.831-18.477-7.44-21.259-5.291-24.122c2.148-2.861-4.904,1.144-3.776,10.696c0,0-1.388-12.038-2.112-16.545
		c0,0-1.716,3.5-1.682,5.934c-0.257-2.087-0.871-6.878-0.805-7.495c0.096-0.889-2.383-4.772-7.118-6.222c0,0-1.41,2.721,0.307,5.933
		c1.717,3.21,6.284,7.252,6.641,8.847c0,0-3.001-2.887-5.725-4.298c0,0,1.02,3.158,1.891,4.26c0.87,1.101,2.817,0.521,3.751,2.244
		c0.934,1.723-8.275-4.659-14.467-6.835c0,0-0.458,1.619,0.936,3.544c1.395,1.926,4.094,2.522,4.921,3.817
		c0.825,1.295-1.894,1.705-3.244,1.407c-1.35-0.298-0.556,0.686,0.763,2.495c1.32,1.808,2.796-0.294,3.877-0.156
		c1.083,0.138-0.654,0.916-1.106,1.701c-0.454,0.786-0.54,2.333,1.2,1.883c1.742-0.446,3.24-1.735,3.041,0.546
		c-0.202,2.283,0.983-0.793,2.107-0.848c0,0,18.157,33.635,18.266,34.062c0.107,0.428-6.553-13.377-15.792-18.249
		c-9.237-4.872-10.576-5.672-11.266-8.049c-0.687-2.378-5.564-6.385-6.948-6.994c0,0,1.277,2.002,1.826,3.639
		c0,0-1.319-1.807-2.166-2.096c0,0,1.15,2.58-0.413,3.245c0,0-1.643-3.092-3.003-2.887c-1.359,0.205-5.942,0.811-6.295,1.036
		C113.844,62.47,115.626,66.301,115.971,66.58z M158.986,89.15c-4.856-10.65-11.68-30.314-11.68-30.314l1.024-2.807
		c-0.029,1.509,2.234,4.537,2.958,9.044C152.012,69.583,158.986,89.15,158.986,89.15z"/>
</g>
<path fill="#CDF4B3" d="M225.312,25.793c0.241-0.425,0.518-5.101,0.062-5.189c-0.455-0.088-5.426,1.153-6.911,1.495
	c-1.486,0.343-1.919,4.2-1.919,4.2c-1.882-0.05-1.747-3.177-1.747-3.177c-0.755,0.643-1.379,3.043-1.379,3.043
	c-0.101-1.912,0.4-4.495,0.4-4.495c-1.177,1.191-4.572,7.31-4.314,10.04c0.258,2.729-0.796,4.101-8.333,12.885
	c-7.538,8.783-8.778,25.724-8.842,25.239c-0.063-0.485,4.951-42.547,4.951-42.547c1.182-0.401,3.654,2.286,2.519,0.017
	c-1.136-2.271,0.932-1.553,2.909-1.8c1.977-0.247,1.259-1.805,0.472-2.43c-0.787-0.626-2.893-0.72-1.834-1.302
	c1.059-0.583,3.436,0.982,4.059-1.419c0.624-2.401,1.042-3.738-0.229-2.882c-1.27,0.856-4.24,1.541-3.915-0.129
	c0.324-1.671,2.864-3.385,3.517-5.938c0.653-2.553-0.478-4.034-0.478-4.034c-5.497,4.766-12.389,15.093-12.127,12.937
	c0.261-2.156,2.505-2.351,2.953-3.841c0.448-1.49,0.214-5.161,0.214-5.161c-2.231,2.562-4.15,6.761-4.15,6.761
	c-0.283-1.789,2.778-7.815,3.242-11.824c0.463-4.009-2.099-6.24-2.099-6.24c-4.291,3.424-5.264,8.437-4.804,9.314
	c0.319,0.607,1.639,5.796,2.224,8.051c-0.955-2.522-4.151-5.43-4.151-5.43c1.09,4.94,4.562,17.911,4.562,17.911
	c-1.633-6.165-5.472-9.088-7.571-10c0.036-0.036,0.071-0.072,0.108-0.108c1.227-1.164,0.393-1.269-1.007-0.187
	c-0.486-0.091-0.679,0.036-0.406,0.334c-1.869,1.637-4.406,5.159-4.692,10.839c0,0,0.71-13.408,0.754-18.467
	c0,0-2.525,3.507-2.936,6.172c0.104-2.328,0.32-7.677,0.507-8.338c0.269-0.954-1.721-5.656-6.628-8.116c0,0-2.044,2.713-0.761,6.539
	c1.283,3.826,5.526,9.087,5.621,10.896c0,0-2.747-3.71-5.46-5.753c0,0,0.531,3.638,1.277,5.003c0.746,1.365,2.983,1.091,3.685,3.146
	c0.702,2.055-8.179-6.621-14.543-10.145c0,0-0.801,1.683,0.368,4.045c1.167,2.362,4.008,3.513,4.67,5.081
	c0.664,1.567-2.384,1.513-3.803,0.937c-1.42-0.574-0.734,0.647,0.373,2.868c1.108,2.22,3.108,0.196,4.265,0.546
	c1.157,0.352-0.884,0.879-1.525,1.654c-0.639,0.775-1.02,2.448,0.966,2.28c1.985-0.168,3.859-1.297,3.218,1.158
	c-0.64,2.456,1.223-0.686,2.461-0.537c0,0,13.619,40.111,13.658,40.598c0.038,0.488-4.685-15.828-13.878-22.861
	c-9.194-7.031-10.509-8.154-10.822-10.878c-0.313-2.725-4.902-8.008-6.3-8.928c0,0,1.025,2.423,1.321,4.314
	c0,0-1.108-2.22-1.979-2.691c0,0,0.779,3.03-1.052,3.469c0,0-1.223-3.684-2.747-3.71c-1.524-0.027-6.644-0.212-7.071-0.031
	c-0.428,0.181,0.812,4.697,1.135,5.064c0.324,0.367,6.891-0.396,7.252,0.459c0.361,0.855-4.517,1.24-5.433,1.459
	c-0.916,0.22,2.511,1.961,2.834,2.329c0.324,0.369,3.195-2.528,5.804-1.447c2.61,1.08-0.838-0.318-2.592,1.097
	c-1.753,1.415-2.731,1.659-0.365,2.003c2.366,0.343,6.072-1.227,8.785,0.818c2.713,2.044,13.612,9.53,18.405,19.265
	c4.792,9.734,11.765,33.486,11.237,36.076c0,0,0.12,0.028,0.314,0.071c-0.002,1.325-0.007,2.065-0.007,2.065
	c0.959-0.229,2.469-0.833,3.686-1.352c0.742,0.116,1.448,0.203,1.977,0.217c0,0-0.079-0.36-0.216-0.996
	c0.118-0.054,0.186-0.085,0.186-0.085c-1.053-2.425,0.849-27.107,3.521-37.622c2.671-10.516,11.784-20.097,14.015-22.659
	c2.231-2.562,6.181-1.794,8.425-2.621c2.243-0.825,1.237-0.863-0.771-1.884c-2.008-1.021-5.093,1.061-2.764-0.537
	c2.33-1.596,5.739,0.642,5.979,0.215s3.231-2.84,2.291-2.866c-0.941-0.026-5.793,0.609-5.617-0.302S225.071,26.22,225.312,25.793z
	 M189.86,30.575c0,0,0.976,23.047,0.307,36.001c0,0-0.781-23.009-1.871-27.95c-1.089-4.941,0.011-8.983-0.635-10.528L189.86,30.575z
	 M177.037,31.376l1.639-2.878c-0.312,1.644,1.602,5.372,1.559,10.431c-0.042,5.06,3.959,27.731,3.959,27.731
	C180.856,54.125,177.037,31.376,177.037,31.376z M184.018,47.074c-2.704-19.466-3.973-23.91-1.962-26.617
	c3.218,2.09,2.732,5.82,4.227,26.922c0.429,6.053,0.72,12.747,0.918,19.236C186.015,60.061,184.875,53.252,184.018,47.074z"/>
<g>
	<path fill="#FFFFFF" d="M89.997,102.418c3.635,1.2,5.61,5.689,5.61,5.689c1.147-1.883,1.836-2.824,3.793-4.267
		c0-2.371-5.452-24.652-6.333-27.023c-0.882-2.371-8.191-0.941-7.178,0C89.207,79.899,89.844,99.178,89.997,102.418z"/>
	<path fill="#FFFFFF" d="M95.924,109.529c0.948,0,5.608,0.238,8.454-0.395c2.845-0.632,5.058-2.561,5.058-2.561
		c-1.186-1.296-5.058-2.891-5.058-2.891C99.321,102.892,95.924,109.529,95.924,109.529z"/>
	<path fill="#FFFFFF" d="M79.884,108.107c0.948,1.343,3.6,1.589,5.908,1.466c2.309-0.123,9.657,0,9.657,0s-2.292-5.468-5.453-5.956
		c-3.16-0.488-10.587,1.488-12.642,2.199C77.355,105.816,78.935,106.764,79.884,108.107z"/>
	<path fill="#FFFFFF" d="M146.887,112.691c-1.738,0.474-14.064,0-16.514-0.791c-2.449-0.79-5.136-3.634-7.191-7.032
		c-2.054-3.397-4.583-3.634-7.348-3.952c-2.765-0.315-15.486,2.702-15.486,2.702c4.208-0.945,5.847-0.172,7.743,1.171
		s10.588,9.481,21.571,10.825C140.646,116.957,146.887,112.691,146.887,112.691z"/>
	<path fill="#FFFFFF" d="M90.077,103.13c0,0-16.04-1.896-18.015-1.581c-1.976,0.316-7.585,2.528-9.324,5.373
		c-1.739,2.845-0.396,5.294-2.212,6.638c-1.817,1.342-8.296,3.002-11.141,6.637c-2.846,3.634-5.452,8.455-5.374,8.85
		c0,0,5.294-7.19,9.876-8.139c4.583-0.948,8.85-1.343,10.983-3.002c2.134-1.66,2.371-5.135,4.268-7.27
		c1.896-2.133,3.159-3.714,7.348-5.057C80.673,104.236,83.834,102.892,90.077,103.13z"/>
	<path fill="#FFFFFF" d="M106.986,101.514c0,0,2.291-3.757,4.029-6.523c1.739-2.766,6.954-5.609,6.954-5.609
		c-1.502-0.948-7.27-1.66-13.117-0.712c-5.847,0.948-4.503,14.144-4.503,14.144C101.33,102.241,106.986,101.514,106.986,101.514z"/>
	<path fill="#FFFFFF" d="M111.094,95.586c0.47-0.03,6.4,0.512,6.4,0.512l3.399-3.339c-0.475-1.835-2.925-2.825-2.925-2.825
		C115.834,90.804,111.094,95.586,111.094,95.586z"/>
	<path fill="#FFFFFF" d="M113.781,100.365c1.027-0.238,3.871-0.158,5.689,0.529c1.818,0.688,3.555,2.236,3.555,2.236
		c0.885-0.321,6.005-2.765,8.297-4.267c2.291-1.502,6.163-5.531,7.901-6.401c1.738-0.869,4.662-0.646,4.662-0.646
		c-1.817-1.121-16.119-1.645-18.568-1.329c-2.45,0.317-3.793,2.767-5.847,4.426C117.416,96.572,113.781,100.365,113.781,100.365z"/>
	<path fill="#FFFFFF" d="M138.274,93.807c-0.87,0.71-4.582,4.108-4.582,4.108s1.658,1.106,2.686,1.976
		c1.026,0.868,11.996,5.493,21.333,5.293c9.338-0.2,12.801-6.954,12.801-6.954c-0.948,0.869-7.98,1.422-13.195,0.948
		c-5.214-0.473-9.087-4.424-11.852-6.163C142.7,91.278,139.144,93.095,138.274,93.807z"/>
	<path fill="#FFFFFF" d="M72.297,90.396c1.502,1.671,4.426,7.52,5.532,9.099c1.105,1.58,1.975,2.019,1.975,2.019
		s8.724,0.387,9.167,1.3c0,0-6.48-14.801-10.984-14.591s-9.402,0.368-10.272,1.159C67.715,89.381,70.796,88.725,72.297,90.396z"/>
	<path fill="#FFFFFF" d="M74.115,94.676c0,0-1.581-3.659-3.002-4.279s-2.37-1.173-3.398-0.462c-1.027,0.711-2.759,7.912-3.081,8.803
		c0,0,7.585-1.375,7.981-1.375L74.115,94.676z"/>
	<path fill="#FFFFFF" d="M192.794,175.27c0-29.542-13.874-55.186-41.531-68.948c-3.55-1.176-16.854-6.126-17.571-6.329
		c-0.808-0.229-2.846,1.161-6.323,2.82c-3.476,1.659-1.896,0.711-0.948,3.782c0.948,3.07,7.27,4.2,14.54,4.357
		c7.268,0.158,8.69-1.423,7.9,1.265c-0.79,2.686-5.53,3.318-11.536,4.424c-6.005,1.106-13.59-1.423-16.433-2.019
		c-2.845-0.595-11.458-6.237-11.458-6.237c-2.087,0.911-2.293,1.461-4.663,2.092c-2.371,0.633-21.808,0.792-23.388,0.633
		c-1.58-0.158-2.095-3.722-4.029-3.792c-1.935-0.071-3.713,1.581-5.926,3.003c-2.212,1.422-3.635,7.427-5.373,9.007
		c-1.738,1.58-7.428,2.371-10.904,2.686c-3.477,0.316-7.428,4.583-9.007,5.848c-1.581,1.265-4.109,6.795-4.109,2.686
		s4.741-10.587,6.953-12.642c2.213-2.055,8.534-4.267,10.588-5.848c2.055-1.582,1.107-3.951,1.74-5.487
		c0.631-1.537,5.372-4.627,8.058-5.678c2.688-1.05,7.981,0,7.981,0l-2.078-3.345C28.346,105.373,0,135.841,0,175.27
		c0,19.376,7.995,37.17,21.339,51.161h150.117C184.8,212.44,192.794,194.646,192.794,175.27z"/>
</g>
<g>
	<path fill="#FFFFFF" d="M330.256,207.607c-10.806-6.678-23.784-5.265-28.988,3.157c-2.839,4.594-2.772,10.323-0.376,15.667h41.643
		C342.241,219.568,337.762,212.246,330.256,207.607z"/>
	<path fill="#FFFFFF" d="M365.047,213.453c-8.167-1.901-16.697,3.701-20.866,12.978h32.961
		C375.344,219.875,370.99,214.836,365.047,213.453z"/>
</g>
<g>
	<path fill="#FFFFFF" d="M337.5,210.098c5.055,4.667,6.333,11.757,6.333,11.757s1-3.257,4.167-6.257s7.521-4.207,12.034-5.782
		c0.172-9.951-4.954-18.493-12.987-20.362c-8.241-1.918-16.85,3.805-20.976,13.234C331.135,204.908,334.294,207.138,337.5,210.098z"
		/>
</g>
<path fill="#CDF4B3" d="M215.56,226.431h8.737c-0.199-9.378-0.247-17.807-0.247-17.807l-4.126-30.884
	c0.71-2.175-1.189-13.247-1.593-15.639c-0.403-2.394-1.905-2.107-1.905-2.107c0.03-4.621,2.545-6.562,0.99-14.456
	c-1.556-7.893-3.711-8.771-3.711-8.771c1.486-7.656-2.508-15.393-3.398-15.275c-0.89,0.116-1.178-1.387-1.077-3.392
	c0.1-2.005,0.68-7.968-3.085-13.905c-3.764-5.937-8.466-3.829-14.774-2.869c-6.307,0.959-8.166,3.333-9.482,7.125
	c-1.315,3.795,3.069,11.011,3.906,11.172c0.835,0.163,3.315,5.272,2.62,10.343c-0.696,5.072,3.572,11.396,3.572,11.396
	c-3.375,3.974,2.282,19.534,3.235,20.588c0.953,1.052,2.757,5.162,1.813,5.558c-0.944,0.396-0.263,2.842,1.783,10.181
	c2.046,7.339,10.959,37.417,14.39,43.58C213.813,222.361,214.633,224.198,215.56,226.431z"/>
<g>
	<path fill="#FFFFFF" d="M295.041,195.87c0.001-0.008,0.004-0.016,0.005-0.024c-0.002,0.001-0.016,0.01-0.016,0.01
		S295.039,195.867,295.041,195.87z"/>
	<path fill="#FFFFFF" d="M293.434,187.122c0,0,0.101,0.072,0.241,0.187c0.038-0.162,0.055-0.321,0.056-0.477
		C293.556,187.007,293.434,187.122,293.434,187.122z"/>
	<path fill="#FFFFFF" d="M271.179,134.954c0.419-0.937,0.063-2.684-0.847-3.285c-0.91-0.601-2.51-0.506-3.121,0.521
		c0,0,1.334-0.402,2.387,0.448c0.446,0.361,0.785,0.828,0.827,1.43c0.272,0.289,0.5,0.61,0.668,0.959
		C271.147,134.981,271.179,134.954,271.179,134.954z"/>
	<path fill="#FFFFFF" d="M281.769,145.655c0.918,0.665,1.448,1.757,0.119,3.618c-0.289,0.403,1.582-1.392,1.582-1.392
		c0.369-0.959-0.08-2.686-1.021-3.236c-0.938-0.549-2.529-0.365-3.084,0.695C279.364,145.34,280.673,144.864,281.769,145.655z"/>
	<path fill="#FFFFFF" d="M257.761,126.628c0.187,0.003,0.388,0.011,0.596,0.027c0.027-0.172,0.046-0.291,0.046-0.291
		c-0.228-0.814-1.347-1.728-2.212-1.62c-0.118,0.015-0.237,0.047-0.354,0.09c0.2,0.335,0.356,0.649,0.474,0.918
		C256.888,125.754,257.436,125.967,257.761,126.628z"/>
	<path fill="#FFFFFF" d="M286.504,154.566c0.919,0.663,1.45,1.756,0.119,3.617c-0.287,0.404,1.583-1.392,1.583-1.392
		c0.368-0.959-0.081-2.686-1.02-3.235c-0.941-0.552-2.53-0.365-3.085,0.693C284.101,154.25,285.411,153.774,286.504,154.566z"/>
	<path fill="#FFFFFF" d="M290.287,164.231c0.651,0.936,0.791,2.14-1.088,3.42c-0.407,0.277,1.963-0.756,1.963-0.756
		c0.668-0.77,0.815-2.538,0.106-3.374c-0.708-0.837-2.277-1.211-3.156-0.414C288.112,163.108,289.511,163.114,290.287,164.231z"/>
	<path fill="#FFFFFF" d="M245.755,118.17c-0.144-0.023-0.288-0.045-0.426-0.04c-0.21,0.008-0.421,0.052-0.63,0.111
		c0.051,0.424,0.08,0.725,0.08,0.725S245.19,118.436,245.755,118.17z"/>
	<path fill="#FFFFFF" d="M284.176,160.547c0.114,0.137,0.294,0.177,0.503,0.184c-0.091-0.285-0.227-0.54-0.411-0.736
		c-0.008-0.008-0.019-0.015-0.027-0.023C284.081,160.125,283.94,160.261,284.176,160.547z"/>
	<path fill="#FFFFFF" d="M276.955,145.47c-0.025-0.446-0.142-0.864-0.358-1.19C276.598,144.784,276.644,145.11,276.955,145.47z"/>
	<path fill="#FFFFFF" d="M291.624,173.326c0.566,0.563,0.97,1.267,0.959,2.123c0.143,0.24,0.418,0.727,0.712,1.311
		c0.12-0.093,0.197-0.153,0.197-0.153c0.569-1.185,0.207-3.551-0.906-4.469c-0.616-0.51-1.506-0.75-2.318-0.656
		c-0.021,0.256,0.187,0.715,0.499,1.245C291.058,172.87,291.35,173.055,291.624,173.326z"/>
	<path fill="#FFFFFF" d="M295.645,202.263c0,0,1.021,0.999,0.823,2.334c-0.164,1.119-0.884,2.065-3.135,1.631
		c-0.488-0.092,1.953,0.863,1.953,0.863c1.015-0.067,2.331-1.207,2.386-2.296C297.726,203.704,296.834,202.325,295.645,202.263z"/>
	<path fill="#FFFFFF" d="M300.674,190.982c-0.55-1.339-2.288-2.401-3.613-1.689c0,0,1.664,0.522,2.196,2.247
		c0.447,1.447,0.191,3.052-2.496,4.018c-0.582,0.21,2.603-0.256,2.603-0.256C300.428,194.552,301.225,192.324,300.674,190.982z"/>
	<path fill="#FFFFFF" d="M293.102,202.915c-0.379-1.084-0.659-1.48-0.659-1.48s1.109-1.11,2.078-1.049
		c0.968,0.062,1.272-1.129,1.3-2.313c0.026-1.137-0.723-2.128-0.78-2.202c-0.184,1.049-1.49,2.048-2.474,2.062
		c0,0-2.393-1.079-1.911-0.961c2.228,0.55,2.998-0.357,3.217-1.466c0.265-1.322-0.706-2.369-0.706-2.369
		c1.187,0.122,2.007,1.542,1.898,2.628c-0.003,0.028-0.016,0.055-0.02,0.083c0.089-0.052,1.593-0.945,1.802-2.354
		c0.215-1.452-2.077-4.015-2.077-4.015c0.362-0.845-0.625-1.782-1.097-2.168c-0.21,0.889-0.938,1.789-1.663,2.046
		c0,0-2.588-0.267-2.096-0.309c2.271-0.188,2.715-1.299,2.582-2.431c-0.159-1.348-1.398-2.038-1.398-2.038
		c1.157-0.263,2.371,0.832,2.604,1.904c0.024,0.112,0.028,0.231,0.028,0.35c0.339-0.342,0.889-0.931,1.218-1.468
		c0.5-0.813,0.197-2.352-0.611-2.876c-0.81-0.525-0.433-1.994-0.127-2.815c0.191-0.515-0.378-1.85-0.915-2.913
		c-0.585,0.451-2.273,1.743-1.937,1.352c0.881-1.023,1.215-1.902,1.225-2.663c-0.011-0.019-0.03-0.052-0.04-0.068
		c-0.223-0.369-1.171-1.624-1.776-2.654c-1.067-0.522-2.111-0.315-2.111-0.315c0.362-0.569,0.962-0.854,1.612-0.93
		c0.001-0.02-0.011-0.052-0.007-0.069c0.182-0.67-0.206-1.423-0.233-2.06c-0.028-0.637-1.877-1.82-1.877-1.82
		s0.446-1.577-0.139-2.692c-0.586-1.118-1.333-1.472-1.333-1.472s0.162-1.352-0.32-2.219c-0.351-0.63-1.123-0.399-1.679-0.418
		c0.281,0.875,0.138,2.034-0.333,2.643c0,0-2.308,1.168-1.917,0.869c1.803-1.389,1.599-2.583,0.898-3.482
		c-0.834-1.073-2.231-0.998-2.231-0.998c0.824-0.841,2.382-0.567,3.145,0.21c0.122-0.116,0.255-0.24,0.245-0.448
		c-0.023-0.484-0.932-0.374-1.415-1.24c-0.482-0.869,0.393-2.341,0.17-3.126c-0.224-0.786-1.459-0.629-1.254-2.098
		c0.208-1.469-0.971-1.536-1.276-1.991c-0.306-0.455-1.332-2.359-1.495-3.27c-0.162-0.911-1.487-1.501-2.209-2.263
		c-0.022-0.023-0.033-0.045-0.053-0.068c0.042,0.759-0.165,1.572-0.563,2.03c0,0-2.369,1.034-1.961,0.756
		c1.877-1.281,1.737-2.484,1.087-3.42c-0.777-1.118-2.175-1.123-2.175-1.123c0.877-0.8,2.447-0.425,3.156,0.414
		c0.039,0.045,0.065,0.103,0.098,0.153c0-0.512,0.037-1.211-0.136-2.335c-0.356-2.302-2.386-2.774-2.386-2.774
		c0.5-0.813-0.821-2.487-1.244-2.791c-0.422-0.304-1.391,1.604-1.438-0.218c-0.01-0.395-0.128-0.775-0.3-1.134
		c-0.374,0.319-1.843,1.564-1.573,1.226c0.707-0.88,0.946-1.597,0.905-2.185c-0.743-0.789-1.778-1.317-2.648-1.3
		c-1.518,0.033-2.413,1.034-2.727,0.387s-0.354-1.712-1.427-3.202c-1.074-1.489-2.307-0.941-2.307-0.941s0.499-0.812-0.767-1.724
		c-0.574-0.412-1.429-0.576-2.193-0.634c-0.091,0.564-0.286,1.732-0.295,1.419c-0.016-0.636-0.13-1.098-0.301-1.446
		c-0.646-0.009-1.125,0.043-1.125,0.043s-0.087-0.37-0.326-0.918c-0.022,0-0.044-0.003-0.067-0.003
		c-1.081,0.026-1.686,0.995-1.686,0.995c-0.137-0.843,0.536-1.639,1.279-1.911c-0.027-0.045-0.049-0.087-0.078-0.133
		c-0.673-1.079-2.565-0.433-2.565-0.433c-0.176-1.299-2.765-2.507-2.765-2.507c0.392,0.021,1.573-1.192,0.546-2.21
		c-1.028-1.018-2.53,0.339-2.53,0.339s-0.103-0.445-1.246-1.509c-0.495-0.46-1.014-0.413-1.444-0.211
		c1.331,0.217,2.836,1.582,3.16,2.742c0,0-0.568,3.224-0.579,2.592c-0.052-2.923-1.456-3.734-2.936-3.815
		c-1.763-0.099-2.77,1.316-2.77,1.316c-0.206-1.297,0.872-2.421,2.069-2.763c-0.087-0.719-0.243-1.796-0.445-2.386
		c-0.323-0.94-1.71-0.616-1.71-0.616s0.064-0.716-1.174-1.346c-1.238-0.628-2.895-0.48-2.895-0.48
		c-0.686-0.68-1.228-2.109-2.136-2.001c-0.908,0.109-1.604,0.912-2.857-0.398c-1.255-1.311-4.03,1.698-3.787,2.671
		c0.242,0.973,0.894,2.653,0.139,2.89c-0.755,0.238-3.048-0.61-3.048-0.61c-1.912-0.427-2.542,0.74-2.542,0.74
		c-0.263-0.376-1.034-0.82-2.183-0.603c-1.147,0.216-2.531,1.62-2.531,1.62c-0.424-0.304-1.538-1.086-3.145-1.255
		c-0.961-0.101-1.808,0.729-2.261,1.363c0.021-0.551-0.382-1.279-2.059-1.604c-2.617-0.505-2.378,3.037-2.378,3.037
		c-0.914-0.763-2.209,1.272-2.521,2.296c-0.21,0.701,0.504,1.266,0.975,1.551c-0.666-0.112-1.896,0.298-2.189,0.663
		c-0.37,0.459-0.722,1.601-0.933,0.909c-0.215-0.693-0.543-1.431-2.057-2.036c-1.513-0.604-2.111,1.924-2.173,2.641
		c-0.064,0.717,0.167,2.091,0.082,3.408c-0.083,1.316-0.593,1.247-0.718,0.319c-0.125-0.927-0.606-0.714-1.384-0.957
		c-0.778-0.244-1.97,0.091-2.795,1.245c-0.825,1.155-0.023,1.882,0.09,3.208c0.112,1.328,0.077,3.607-0.347,3.303
		c-0.423-0.303,0.126-1.434-0.657-1.687c-0.782-0.252-1.119,0.707-2.312,1.041c-1.19,0.334-1.632,2.991-0.721,3.964
		c0.911,0.97,1.856,0.942,2.84,2.079c0.985,1.135-0.577,2.357-0.577,2.357c-0.61,0.207-2.495-1.447-2.495-1.447
		c-1.821,0.353-0.612,4.209-0.612,4.209c-1.347,0.272,0.276,3.483,2.048,4.596c1.773,1.113,1.949,0.509,1.949,0.509
		c1.066,1.101,3.135,1.161,3.783,0.611c0.646-0.551,1.37-1.792,1.37-1.792c0.617,0.38,0.999-0.052,1.507-0.343
		c0.508-0.293,0.459-0.401,1.158-0.123c0.583,0.233,0.593,0.673,0.58,0.813c-0.154,0.126-0.354,0.278-0.596,0.44
		c-0.59,0.394,0.298,1.245,0.298,1.245c-0.387-0.156-0.972,0.826-1.163,1.83c-0.19,1.003,1.846,1.276,1.846,1.276s0,0-0.14,0.26
		c-0.14,0.259,0.012,0.455,1.121,1.796c1.109,1.343,2.891,1.336,5.139,5.231c2.249,3.897-1.148,7.161-2.392,6.664
		c-1.243-0.496-0.548-2.379-1.782-3.998c-1.231-1.62-2.974,1.918-2.167,2.872c0.806,0.952,3.346,0.345,2.088,4.685
		c-1.258,4.341-16.739,32.755-20.311,38.334c-3.335,5.209-5.652,3.583-2.084,13.308c0.236,0.644,0.527,1.271,0.858,1.886h28.327
		c5.61-4.951,22.342-15.339,28.453-16.762c6.938-1.615,11.82,7.622,12.155,8.161c0.337,0.54-0.059,1.798-0.059,1.798
		s-1.325,1.969-0.537,3.094c0.789,1.124,2.012-0.209,2.012-0.209l2.013-0.208c0.973-0.827,0.243-1.387,0.243-1.387
		c0.81,0.523,1.452-1.042,0.44-2.022c-1.012-0.981-2.322-0.484-3.157-2.572c-0.835-2.089-7.06-7.679-10.021-9.599
		c-2.961-1.919,1.469-2.056,1.469-2.056c3.782-0.521,15.951-3.747,17.119-2.199c1.167,1.545,5.132,7.65,5.132,7.65
		c-0.743,2.2,1.345,5.6,2.061,6.56c0.717,0.959,3.604,1.642,3.498,2.476c-0.106,0.834,1.235,3.214,2.511,3.702
		c1.277,0.489,1.835-0.393,1.835-0.393s-0.478-0.211,0.639-0.283c1.117-0.074,1.32,0.167,1.32,0.167s0,0,1.047,0.419
		c1.048,0.417,2.344-2.688,2.344-2.688c0.578-0.423,1.296-0.313,2.077-0.925c0.779-0.613,2.27-5.011,2.899-5.334
		c0.629-0.323,1.851-0.764,2.827-1.162c0.977-0.401,1.303-0.927,1.256-2.159c-0.045-1.228,0.292-1.334,0.838-2.21
		c0.548-0.875-0.932-3.75-0.932-3.75C293.055,204.313,293.482,204,293.102,202.915z M213.778,136.222
		c-1.765-0.621-2.458,0.049-2.722,0.927c-0.315,1.048,0.391,1.972,0.391,1.972c-0.953-0.194-1.51-1.408-1.338-2.275
		c0.171-0.87,1.366-1.623,2.195-1.554C212.304,135.292,214.161,136.355,213.778,136.222z M221.137,130.339
		c-1.748-1.534-2.847-1.102-3.549-0.233c-0.838,1.034-0.447,2.411-0.447,2.411c-1.006-0.666-1.096-2.301-0.505-3.2
		c0.594-0.902,2.308-1.189,3.227-0.722C219.862,128.594,221.515,130.67,221.137,130.339z M224.692,123.899
		c-1.298-1.939-2.478-1.822-3.383-1.177c-1.081,0.769-1.055,2.194-1.055,2.194c-0.804-0.91-0.468-2.502,0.338-3.208
		c0.807-0.706,2.546-0.52,3.316,0.175C223.908,121.884,224.973,124.318,224.692,123.899z M231.58,128.037
		c-2.257-1.847-3.738-1.259-4.71-0.14c-1.158,1.333-0.696,3.042-0.696,3.042c-1.311-0.793-1.36-2.838-0.536-3.993
		c0.827-1.155,3.122-1.588,4.324-1.041C229.962,125.905,232.07,128.438,231.58,128.037z M232.726,122.439
		c-0.521-1.101,0.251-2.52,1.226-2.956c0.977-0.438,2.603,0.245,3.148,1.13c0,0,0.344,2.629,0.191,2.148
		c-0.709-2.227-1.877-2.456-2.933-2.105C233.103,121.073,232.726,122.439,232.726,122.439z M238.604,135.957
		c-0.049-1.89-0.914-2.345-1.819-2.323c-1.082,0.026-1.688,0.996-1.688,0.996c-0.157-0.976,0.77-1.892,1.634-2
		c0.865-0.108,1.983,0.805,2.21,1.62C238.942,134.249,238.614,136.367,238.604,135.957z M239.67,129.893
		c-0.06-2.326-1.123-2.884-2.238-2.857c-1.329,0.031-2.074,1.224-2.074,1.224c-0.192-1.2,0.946-2.327,2.009-2.461
		c1.065-0.132,2.441,0.988,2.72,1.992C240.087,127.791,239.683,130.396,239.67,129.893z M257.58,132.649
		c1.359,0.438,2.559,2.513,2.468,3.838c0,0-1.614,2.812-1.413,2.217c0.927-2.743-0.134-3.989-1.509-4.577
		c-1.639-0.702-3.063,0.271-3.063,0.271C254.342,132.893,256.22,132.212,257.58,132.649z M257.407,142.58
		c-1.23-0.541-2.406,0.209-2.406,0.209c0.32-1.16,1.829-1.685,2.856-1.349c1.03,0.337,1.828,1.936,1.668,2.955
		c0,0-1.447,2.168-1.251,1.709C259.181,143.99,258.439,143.033,257.407,142.58z M248.524,126.364
		c1.071-0.037,2.348,1.201,2.541,2.225c0,0-0.628,2.552-0.598,2.05c0.141-2.317-0.871-2.967-1.986-3.04
		c-1.33-0.087-2.176,1.03-2.176,1.03C246.216,127.42,247.451,126.4,248.524,126.364z M246.299,173.307l9.599,2.637
		c-4.485,2.393-12.171-0.677-12.171-0.677S244.698,174.441,246.299,173.307z M260.611,186.95c-2.83,1.381-18.584,4.263-18.584,4.263
		s-1.657-0.28,2.291-3.023c3.946-2.743,22.3-5.805,22.3-5.805S263.441,185.571,260.611,186.95z M267.725,144.081
		c1.05-2.695,0.044-3.988-1.304-4.639c-1.606-0.777-3.074,0.128-3.074,0.128c0.348-1.491,2.256-2.083,3.594-1.583
		c1.339,0.5,2.447,2.628,2.297,3.945C269.237,141.932,267.498,144.665,267.725,144.081z M271.225,150.452
		c0.584-1.781-0.083-2.504-0.949-2.798c-1.034-0.35-1.932,0.345-1.932,0.345c0.178-0.965,1.362-1.5,2.217-1.303
		c0.856,0.198,1.612,1.438,1.554,2.279C272.116,148.975,271.098,150.838,271.225,150.452z M278.54,166.152
		c0,0-1.875,0.95-1.558,0.705c1.466-1.127,1.299-2.098,0.73-2.831c-0.678-0.871-1.812-0.812-1.812-0.812
		c0.676-0.69,1.964-0.457,2.576,0.19C279.089,164.054,279.046,165.497,278.54,166.152z M278.723,157.212
		c0,0-2.539,1.975-2.134,1.505c1.874-2.174,1.335-3.721,0.265-4.785c-1.275-1.27-2.966-0.916-2.966-0.916
		c0.815-1.279,2.82-1.19,3.931-0.273C278.929,153.661,279.293,156.026,278.723,157.212z M284.48,180.603
		c2.191-0.607,2.429-1.785,2.095-2.877c-0.396-1.3-1.731-1.753-1.731-1.753c1.085-0.474,2.468,0.382,2.887,1.397
		c0.42,1.017-0.266,2.638-1.143,3.149C286.588,180.519,284.006,180.735,284.48,180.603z M287.398,213.517
		c-0.336,1.031-1.909,1.77-2.911,1.563c0,0-2.121-1.572-1.671-1.351c2.072,1.018,3.016,0.306,3.465-0.726
		c0.537-1.227-0.195-2.458-0.195-2.458C287.225,210.922,287.732,212.484,287.398,213.517z M287.357,206.974
		c0,0-2.11,0.035-1.719-0.045c1.812-0.374,2.066-1.314,1.854-2.218c-0.254-1.075-1.315-1.516-1.315-1.516
		c0.906-0.324,1.987,0.445,2.272,1.291C288.738,205.333,288.095,206.607,287.357,206.974z"/>
</g>
<g>
	<path fill="#FFFFFF" d="M410.121,202.728c-4.788-11.759-16.121-17.822-25.313-13.542c-9.192,4.279-12.762,17.281-7.975,29.039
		c1.297,3.186,3.077,5.949,5.162,8.206h26.396C412.654,220.396,413.589,211.244,410.121,202.728z"/>
	<path fill="#FFFFFF" d="M437.391,210.173c-3.714-7.478-13.726-10.102-23.829-6.873c1.456,5.295,1.693,9.165,1.382,13.559
		c-0.27,3.807-1.843,7.243-3.208,9.572h24.032C439.016,221.058,439.836,215.093,437.391,210.173z"/>
</g>
<g>
	<path fill="#FFFFFF" d="M687.66,213.764c-5.204-8.421-18.183-9.834-28.988-3.157c-6.419,3.967-10.628,9.897-11.896,15.823h42.35
		C690.356,222.003,689.973,217.507,687.66,213.764z"/>
	<path fill="#FFFFFF" d="M623.881,216.453c-4.997,1.163-8.862,4.918-11.039,9.978h30.332
		C638.655,218.983,631.125,214.767,623.881,216.453z"/>
	<path fill="#FFFFFF" d="M645.095,224.855c0,0,1.279-7.091,6.334-11.757c3.205-2.959,6.364-5.189,11.428-7.411
		c-4.125-9.429-12.734-15.152-20.976-13.234c-8.032,1.87-13.159,10.411-12.987,20.362c4.514,1.575,8.867,2.782,12.035,5.782
		C644.095,221.598,645.095,224.855,645.095,224.855z"/>
	<path fill="#FFFFFF" d="M612.095,221.225c4.787-11.758,1.218-24.76-7.975-29.039c-9.192-4.28-20.525,1.782-25.313,13.542
		c-2.933,7.201-2.717,14.858-0.009,20.703h30.516C610.385,224.854,611.325,223.115,612.095,221.225z"/>
	<path fill="#FFFFFF" d="M573.983,219.859c-0.311-4.395-0.073-8.264,1.383-13.559c-10.104-3.229-20.115-0.604-23.83,6.873
		c-1.997,4.019-1.812,8.736,0.089,13.258h24.05C574.847,224.508,574.154,222.26,573.983,219.859z"/>
</g>
<g>
	<path fill="#FFFFFF" d="M745.641,142.124l-2.271-4.132c-6.76-2.209-14.569-3.998-22.794-4.175L745.641,142.124z"/>
	<path fill="#FFFFFF" d="M818.455,167.081c5.607-32.814-31.628-29.991-44.202-22.404c8.213-15.976,13.535-36.61,13.535-36.61
		c-8.494,5.429-14.393,4.712-14.393,4.712c-0.407,7.41-2.523,14.382-5.241,20.47c-0.626-13.061-4.254-27.65-17.06-29.442
		c0,0-14.903,19.415-7.726,34.186c0,0,7.017,8.853,12.494,12.496l-35.29-16.67c-7.379-0.159-15.093,0.978-22.682,4.278
		c-21.438,9.321-18.055,56.55,0.284,88.336h103.429C808.005,212.899,813.88,193.854,818.455,167.081z M698.592,162.879
		c0,0-0.993-17.35,15.684-20.755l6.3,5.073C720.575,147.197,701.673,148.316,698.592,162.879z"/>
	<path fill="#FFFFFF" d="M927.13,149.756c-0.993-4.811-0.728-11.874-1.338-14.659c-0.61-2.786-2.84-6.579-6.169-4.731
		c-3.33,1.847-23.071,15.254-25.887,17.217s-18.116,15.881-18.861,16.835c-1.317,1.687-3.153,3.839,2.556,5.603
		c5.708,1.763,21.83-1.14,25.83-1.338c4.001-0.198,21.112-1.609,23.014-4.316C928.177,161.658,928.123,154.566,927.13,149.756z"/>
	<path fill="#FFFFFF" d="M921.393,170.701c-2.186-0.085-33.347,3.209-36.146,3.689s-13.21,1.877-14.036,3.636
		c-0.807,1.72,6.611,5.691,9.399,6.747c2.789,1.056,23.521,10.5,25.928,11.092c2.405,0.592,11.545,1.502,12.901,0.023
		c1.357-1.479,1.835-11.579,2.958-13.704s5.178-6.728,4.027-9.793C925.273,169.326,923.579,170.787,921.393,170.701z"/>
	<path fill="#FFFFFF" d="M873.728,163.026c1.303-0.635,6.412-5.848,7.885-7.841c1.472-1.993,13.325-12.249,15.03-13.596
		s21.684-12.432,24.197-15.704s-3.465-15.897-4.88-18.266c-1.414-2.369-7.109-13.85-9.399-14.957
		c-0.662-0.319-1.696-0.544-2.826-0.704c-3.119,5.887-7.856,14.829-13.176,24.87c0,0,0,0,0,0
		c-0.522,3.488-8.158,18.172-9.827,21.525c-1.668,3.354-5.214,12.929-8.783,18.99C868.379,163.405,872.425,163.662,873.728,163.026z
		"/>
	<path fill="#FFFFFF" d="M849.162,206.579c0.409-2.555,5.387-17.806,4.984-20.11c-0.113-0.648-0.456-1.028-0.883-1.25
		c-9.032,12.58-23.302,28.281-35.702,41.211h25.872C846.201,217.143,848.956,207.859,849.162,206.579z"/>
	<path fill="#FFFFFF" d="M868.588,209.79c-0.802-2.934-7.633-18.99-9.511-20.976c-1.879-1.986-2.041-0.294-2.398,1.127
		c0,0-2.244,7.556-2.999,11.654s-3.712,17.802-4.946,22.116c-0.191,0.67-0.475,1.606-0.81,2.72h29.724
		C876.575,224.461,869.388,212.712,868.588,209.79z"/>
	<path fill="#FFFFFF" d="M907.589,84.684c0,0-0.184,0.347-0.52,0.98c5.074,3.257,15.99,22.571,20.207,32.695
		c4.217,10.125,7.36,31.08,4.809,56.973c-1.997,20.273-17.443,40.582-26.438,51.099h23.873
		c11.826-15.599,20.217-36.199,20.848-64.021C951.342,119.422,911.474,86.633,907.589,84.684z"/>
	<path fill="#FFFFFF" d="M902.118,216.587c2.034-3.056,8.325-10.365,7.339-13.464c-0.987-3.1-11.015-7.772-17.453-10.13
		c-6.438-2.359-23.334-8.677-26.749-7.658c-1.949,0.582,2.262,10.659,3.411,13.725c1.15,3.066,9.184,20.507,11.034,22.496
		c1.14,1.225,3.285,3.486,5.296,4.875h5.415C894.062,224.132,900.486,219.04,902.118,216.587z"/>
</g>
</svg>
